PathFileType	4	(X/Y/Z)	C:\Users\dbl\Desktop\20210112(1)\20210112\bx_y_10_901.trc
DataRate	CameraRate	NumFrames	NumMarkers	Units	OrigDataRate	OrigDataStartFrame	OrigNumFrames
50.00	50.00	       4	43	mm	50.00	332	       530
Frame#	Time	Top.Head			R.Acromium			L.Acromium			Sternum			R.ASIS			L.ASIS			V.Sacral			R.Thigh.Upper			R.Thigh.Front			R.Thigh.Rear			R.Knee.Lat			R.Knee.Med			R.Shank.Upper			R.Shank.Front			R.Shank.Rear			R.Ankle.Lat			R.Midfoot.Lat			R.Toe.Lat			R.Toe.Tip			R.Toe.Med			R.Ankle.Med			R.Midfoot.Sup			R.Heel			L.Thigh.Upper			L.Thigh.Front			L.Thigh.Rear			L.Knee.Lat			L.Knee.Med			L.Shank.Upper			L.Shank.Front			L.Shank.Rear			L.Ankle.Lat			L.Midfoot.Lat			L.Toe.Lat			L.Toe.Tip			L.Toe.Med			L.Ankle.Med			L.Midfoot.Sup			L.Heel			origin1 front left			origin2 front right			origin 3 back right			origin 4 back leftt			
		X1	Y1	Z1	X2	Y2	Z2	X3	Y3	Z3	X4	Y4	Z4	X5	Y5	Z5	X6	Y6	Z6	X7	Y7	Z7	X8	Y8	Z8	X9	Y9	Z9	X10	Y10	Z10	X11	Y11	Z11	X12	Y12	Z12	X13	Y13	Z13	X14	Y14	Z14	X15	Y15	Z15	X16	Y16	Z16	X17	Y17	Z17	X18	Y18	Z18	X19	Y19	Z19	X20	Y20	Z20	X21	Y21	Z21	X22	Y22	Z22	X23	Y23	Z23	X24	Y24	Z24	X25	Y25	Z25	X26	Y26	Z26	X27	Y27	Z27	X28	Y28	Z28	X29	Y29	Z29	X30	Y30	Z30	X31	Y31	Z31	X32	Y32	Z32	X33	Y33	Z33	X34	Y34	Z34	X35	Y35	Z35	X36	Y36	Z36	X37	Y37	Z37	X38	Y38	Z38	X39	Y39	Z39	X40	Y40	Z40	X41	Y41	Z41	X42	Y42	Z42	X43	Y43	Z43	

332	6.620	-165.00751	119.45114	1280.78003	-395.62366	-58.27594	1123.56030	-405.31949	265.62616	1142.30542	-455.23438	85.00889	1157.28906	-823.69324	-28.98438	901.80664	-800.45416	188.46431	977.76660	-973.61639	80.36115	1088.83569	-875.49158	-82.03162	849.34674	-795.69458	-21.56904	791.47430	-888.74951	-69.16634	694.37787	-853.96637	-43.32996	600.57922	-826.56268	67.84630	561.26776	-850.38116	-38.97624	550.57025	-786.72375	4.80400	521.61383	-868.76331	-49.10637	462.05209	-775.94312	-17.74516	198.74370	-664.26080	-71.60125	158.93613	-622.49628	-81.17483	155.83577	-563.98145	-36.31546	164.12984	-606.87854	18.22357	168.57941	-733.86572	65.65852	222.03917	-679.85217	49.95162	165.92430	-800.25000	44.61621	170.67946	-871.00769	276.07959	853.64105	-801.73633	209.85571	796.34637	-893.37274	281.42560	723.12805	-883.67133	250.17111	610.99097	-828.25208	143.97995	556.56079	-864.02008	244.67973	554.79919	-797.59998	205.31639	529.92554	-879.83911	257.52881	474.98166	-779.25726	228.80406	199.25545	-666.93134	300.92282	157.06645	-628.27136	307.28983	160.48511	-562.51245	257.10434	164.47609	-598.09100	223.43076	173.74178	-724.42664	159.71652	222.67406	-679.09406	176.54005	163.65590	-801.96088	178.77795	179.38393	-528.35486	303.96246	146.33850	-518.19098	-72.52736	143.38785	-876.03473	-78.55930	141.53601	-882.60516	296.14041	144.61592	
333	6.640	-163.07697	120.25848	1263.63013	-392.93362	-56.35755	1107.82800	-402.23087	265.51154	1127.03357	-451.98953	85.12863	1152.19629	-827.51526	-29.89098	889.69177	-802.37451	187.81334	975.52747	-973.95740	80.40022	1089.26697	-877.59924	-81.85956	848.97986	-797.58466	-20.90778	791.33685	-889.86340	-69.63644	694.20685	-855.04510	-43.31033	600.09875	-827.98901	68.66188	561.01019	-851.32690	-39.02315	550.36627	-787.66956	4.98722	521.51440	-869.38525	-49.20806	461.73154	-776.02142	-17.97631	198.76259	-664.15875	-71.57578	158.96118	-622.44891	-81.09666	155.81703	-564.03528	-36.16997	164.17538	-606.90295	18.30613	168.58151	-734.04712	65.61510	221.99959	-680.02893	49.89855	165.97858	-800.43317	44.32594	170.67195	-873.46954	276.96750	853.12927	-803.76379	210.59250	795.73602	-895.79956	282.23178	722.54095	-885.05127	250.53444	610.56934	-829.80896	144.15157	555.92291	-865.29419	245.14314	554.33594	-798.82660	205.78305	529.67102	-880.77509	257.96237	474.53732	-779.26746	229.07526	199.09251	-667.09918	300.76596	156.77385	-628.16663	307.33359	160.32925	-562.49420	257.04123	164.40129	-597.98584	223.46933	173.69809	-724.53943	159.95648	222.75890	-679.19379	176.62843	163.66249	-802.05884	179.03168	179.34464	-528.31226	304.02911	146.35490	-518.18726	-72.47579	143.32431	-876.03467	-78.58016	141.51575	-882.56592	296.13693	144.63145	
334	6.660	-161.56302	120.82925	1246.79248	-390.20758	-54.32640	1092.25037	-399.37650	265.29156	1111.77661	-448.81149	85.26039	1147.29688	-831.26965	-30.81346	877.17383	-804.19897	187.18039	973.40558	-974.07507	80.39358	1089.71826	-879.73212	-81.75481	848.65088	-799.52832	-20.26925	791.16901	-890.91833	-70.00516	693.98584	-855.98926	-43.18972	599.48804	-829.30652	69.41995	560.75452	-852.22034	-38.99638	550.13940	-788.55835	5.15493	521.43878	-870.05469	-49.22670	461.54074	-776.07465	-18.14867	198.81631	-664.07617	-71.55636	158.97490	-622.46667	-81.06393	155.79854	-564.13361	-35.99525	164.16412	-606.92212	18.41977	168.59264	-734.10901	65.50989	221.99309	-680.14453	49.81928	166.02759	-800.61206	44.06687	170.71703	-875.70410	277.91077	852.79297	-805.74268	211.28438	795.30182	-897.95221	282.86176	721.92053	-886.12970	250.63228	610.53406	-831.25256	144.24338	555.30896	-866.41687	245.43234	553.91492	-799.91766	206.05286	529.42590	-881.57544	258.20038	474.12228	-779.22845	229.17632	198.97751	-667.15601	300.69351	156.74173	-628.09900	307.34552	160.27774	-562.45544	256.99860	164.32965	-597.91144	223.35986	173.60143	-724.67499	159.97755	222.82414	-679.23590	176.65721	163.67122	-802.14948	179.14296	179.31946	-528.28467	304.10153	146.35242	-518.18872	-72.45951	143.21919	-876.03979	-78.59599	141.49402	-882.52393	296.12372	144.65660	
335	6.680	-160.33539	121.19631	1230.30493	-387.45236	-52.12287	1076.86646	-396.65848	264.94125	1096.55115	-445.70102	85.40376	1142.59009	-834.95331	-31.75000	864.28687	-805.92847	186.56551	971.39935	-974.00665	80.43436	1090.09546	-881.86682	-81.66154	848.29132	-801.44165	-19.72620	790.95538	-892.07513	-70.10007	693.65594	-856.84753	-42.93617	598.79120	-830.47278	70.08652	560.51221	-853.07715	-38.84010	549.87366	-789.40979	5.35500	521.36694	-870.75000	-49.08561	461.38370	-776.06512	-18.18655	198.88904	-664.00513	-71.49943	159.01715	-622.51196	-81.06300	155.84581	-564.24097	-35.79166	164.11179	-606.90479	18.59704	168.56958	-734.08435	65.42497	222.01865	-680.19897	49.77357	166.01524	-800.70166	43.91898	170.76120	-877.78638	278.64688	852.44135	-807.74292	211.81027	794.89551	-899.88910	283.31509	721.31305	-886.98901	250.47720	610.91150	-832.57147	144.26381	554.73224	-867.49182	245.57802	553.53894	-800.90326	206.15123	529.21814	-882.37946	258.25568	473.66977	-779.18622	229.13937	198.87625	-667.10516	300.68756	156.90378	-628.09784	307.34940	160.40979	-562.43500	256.94595	164.28146	-597.89185	223.12878	173.47701	-724.84155	159.82442	222.91087	-679.22919	176.63985	163.68213	-802.23077	179.08357	179.31827	-528.29468	304.13422	146.34145	-518.18756	-72.46304	143.10391	-876.05133	-78.59476	141.48157	-882.49127	296.11111	144.67903	
